<?xml version="1.0" encoding="UTF-8"?>
<svg width="120" height="120" viewBox="0 0 120 120" fill="none" xmlns="http://www.w3.org/2000/svg">
  <!-- White Background Circle -->
  <circle cx="60" cy="60" r="60" fill="white"/>

  <!-- Central Intelligence Hub -->
  <circle cx="60" cy="60" r="16" fill="#FF1744"/>
  <circle cx="60" cy="60" r="10" fill="white" opacity="0.3"/>

  <!-- AI Brain Pattern -->
  <path d="M55 55 Q60 50 65 55 Q60 60 55 55" fill="white" opacity="0.8"/>
  <path d="M55 65 Q60 70 65 65 Q60 60 55 65" fill="white" opacity="0.8"/>
  <circle cx="57" cy="57" r="1" fill="white"/>
  <circle cx="63" cy="57" r="1" fill="white"/>
  <circle cx="60" cy="63" r="1" fill="white"/>

  <!-- Message Bubbles Network -->
  <!-- Top Messages -->
  <ellipse cx="60" cy="25" rx="12" ry="8" fill="#FF1744" opacity="0.8"/>
  <ellipse cx="60" cy="25" rx="8" ry="5" fill="white" opacity="0.9"/>
  <circle cx="57" cy="25" r="1" fill="#FF1744"/>
  <circle cx="63" cy="25" r="1" fill="#FF1744"/>

  <!-- Right Messages -->
  <ellipse cx="95" cy="60" rx="8" ry="12" fill="#FF1744" opacity="0.8"/>
  <ellipse cx="95" cy="60" rx="5" ry="8" fill="white" opacity="0.9"/>
  <circle cx="95" cy="57" r="1" fill="#FF1744"/>
  <circle cx="95" cy="63" r="1" fill="#FF1744"/>

  <!-- Bottom Messages -->
  <ellipse cx="60" cy="95" rx="12" ry="8" fill="#FF1744" opacity="0.8"/>
  <ellipse cx="60" cy="95" rx="8" ry="5" fill="white" opacity="0.9"/>
  <circle cx="57" cy="95" r="1" fill="#FF1744"/>
  <circle cx="63" cy="95" r="1" fill="#FF1744"/>

  <!-- Left Messages -->
  <ellipse cx="25" cy="60" rx="8" ry="12" fill="#FF1744" opacity="0.8"/>
  <ellipse cx="25" cy="60" rx="5" ry="8" fill="white" opacity="0.9"/>
  <circle cx="25" cy="57" r="1" fill="#FF1744"/>
  <circle cx="25" cy="63" r="1" fill="#FF1744"/>

  <!-- Intelligent Connection Lines -->
  <g stroke="#FF1744" stroke-width="2" fill="none" opacity="0.6">
    <path d="M60 44 L60 33" stroke-linecap="round"/>
    <path d="M76 60 L87 60" stroke-linecap="round"/>
    <path d="M60 76 L60 87" stroke-linecap="round"/>
    <path d="M44 60 L33 60" stroke-linecap="round"/>
  </g>

  <!-- Diagonal Smart Connections -->
  <g stroke="#FF1744" stroke-width="1.5" fill="none" opacity="0.4" stroke-dasharray="3 2">
    <path d="M70 50 L85 35" stroke-linecap="round"/>
    <path d="M70 70 L85 85" stroke-linecap="round"/>
    <path d="M50 70 L35 85" stroke-linecap="round"/>
    <path d="M50 50 L35 35" stroke-linecap="round"/>
  </g>

  <!-- Corner Activity Indicators -->
  <circle cx="85" cy="35" r="4" fill="white"/>
  <circle cx="85" cy="35" r="2" fill="#FF1744"/>

  <circle cx="85" cy="85" r="4" fill="white"/>
  <circle cx="85" cy="85" r="2" fill="#FF1744"/>

  <circle cx="35" cy="85" r="4" fill="white"/>
  <circle cx="35" cy="85" r="2" fill="#FF1744"/>

  <circle cx="35" cy="35" r="4" fill="white"/>
  <circle cx="35" cy="35" r="2" fill="#FF1744"/>

  <!-- Ping Wave Rings -->
  <g stroke="#FF1744" stroke-width="1" fill="none" opacity="0.2">
    <circle cx="60" cy="60" r="25"/>
    <circle cx="60" cy="60" r="35"/>
    <circle cx="60" cy="60" r="45"/>
  </g>

  <!-- Smart Features Icons -->
  <!-- Marketplace indicator (top right) -->
  <g transform="translate(80, 20)">
    <rect x="0" y="0" width="8" height="6" rx="1" fill="white"/>
    <path d="M1 2 L1 1 Q1 0 2 0 L6 0 Q7 0 7 1 L7 2" stroke="#FF1744" stroke-width="0.5" fill="none"/>
  </g>

  <!-- Status indicator (bottom left) -->
  <g transform="translate(20, 80)">
    <circle cx="4" cy="4" r="4" fill="white"/>
    <circle cx="4" cy="4" r="2" fill="#FF1744"/>
    <circle cx="4" cy="2" r="0.5" fill="white"/>
  </g>
</svg>
